<svg width="22" height="23" viewBox="0 0 22 23" fill="none" xmlns="http://www.w3.org/2000/svg">
<path d="M20.7363 5.83665L17.4809 2.58123C16.8343 1.93386 15.9572 1.56974 15.0422 1.56894H7.74913C6.83418 1.56974 5.957 1.93386 5.31044 2.58123L2.05501 5.83665C1.40764 6.48322 1.04353 7.3604 1.04272 8.27535V18.8238C1.04272 19.7391 1.40631 20.6169 2.05349 21.2641C2.70068 21.9112 3.57845 22.2748 4.49371 22.2748H18.2976C19.2129 22.2748 20.0907 21.9112 20.7378 21.2641C21.385 20.6169 21.7486 19.7391 21.7486 18.8238V8.27535C21.7478 7.3604 21.3837 6.48322 20.7363 5.83665ZM11.3957 16.5232C10.1753 16.5232 9.00496 16.0384 8.14205 15.1755C7.27914 14.3126 6.79436 13.1422 6.79436 11.9219C6.79436 11.6168 6.91555 11.3242 7.13128 11.1085C7.34701 10.8927 7.6396 10.7716 7.94469 10.7716C8.24977 10.7716 8.54236 10.8927 8.75809 11.1085C8.97382 11.3242 9.09501 11.6168 9.09501 11.9219C9.09501 12.5321 9.3374 13.1172 9.76886 13.5487C10.2003 13.9801 10.7855 14.2225 11.3957 14.2225C12.0058 14.2225 12.591 13.9801 13.0225 13.5487C13.4539 13.1172 13.6963 12.5321 13.6963 11.9219C13.6963 11.6168 13.8175 11.3242 14.0332 11.1085C14.249 10.8927 14.5416 10.7716 14.8466 10.7716C15.1517 10.7716 15.4443 10.8927 15.6601 11.1085C15.8758 11.3242 15.997 11.6168 15.997 11.9219C15.997 13.1422 15.5122 14.3126 14.6493 15.1755C13.7864 16.0384 12.616 16.5232 11.3957 16.5232ZM4.96534 6.17025L6.9324 4.20319C7.15284 3.99298 7.44456 3.87383 7.74913 3.86959H15.0422C15.3468 3.87383 15.6385 3.99298 15.8589 4.20319L17.826 6.17025H4.96534Z" fill="#3B3C40"/>
</svg>
