<svg width="18" height="23" viewBox="0 0 18 23" fill="none" xmlns="http://www.w3.org/2000/svg">
<path d="M8.82614 10.6997C9.79308 10.6997 10.7383 10.4129 11.5423 9.87573C12.3462 9.33853 12.9729 8.57499 13.3429 7.68166C13.7129 6.78834 13.8097 5.80534 13.6211 4.85699C13.4325 3.90864 12.9668 3.03752 12.2831 2.3538C11.5994 1.67008 10.7283 1.20445 9.77992 1.01582C8.83157 0.827177 7.84857 0.923993 6.95525 1.29402C6.06192 1.66405 5.29838 2.29067 4.76118 3.09464C4.22398 3.89862 3.93726 4.84383 3.93726 5.81077C3.93726 7.10738 4.45233 8.35089 5.36918 9.26773C6.28602 10.1846 7.52953 10.6997 8.82614 10.6997Z" fill="#3B3C40"/>
<path d="M16.1594 22.9219C16.4835 22.9219 16.7944 22.7931 17.0236 22.5639C17.2528 22.3347 17.3816 22.0238 17.3816 21.6996C17.3816 19.4306 16.4802 17.2544 14.8758 15.6499C13.2713 14.0455 11.0951 13.1441 8.82606 13.1441C6.55699 13.1441 4.38085 14.0455 2.77637 15.6499C1.17189 17.2544 0.270508 19.4306 0.270508 21.6996C0.270508 22.0238 0.399278 22.3347 0.628489 22.5639C0.8577 22.7931 1.16858 22.9219 1.49273 22.9219H16.1594Z" fill="#3B3C40"/>
</svg>
