<svg width="148" height="148" viewBox="0 0 148 148" fill="none" xmlns="http://www.w3.org/2000/svg">
<path d="M55.922 2.80315C42.071 6.56516 33.35 11.6952 22.577 22.6392C11.1201 34.0962 4.62205 46.5791 1.88605 62.8241C-6.15095 110.02 37.967 154.138 85.505 146.101C130.649 138.406 158.351 92.2361 143.474 49.4862C141.08 42.8172 140.909 40.2522 142.619 35.2932C143.645 32.0442 144.158 27.0852 143.474 24.3492C142.79 20.9292 143.303 17.8512 145.184 14.9442C151.169 5.71016 145.184 -2.32684 135.437 1.77716C132.359 3.14516 127.571 4.17116 124.664 4.00015C121.928 4.00015 117.14 4.68416 114.233 5.53915C110.129 6.90715 105.683 6.39415 95.423 3.65816C80.0331 -0.274841 68.576 -0.616852 55.922 2.80315ZM92.858 9.81415C103.118 12.7211 108.59 13.2341 116.285 11.5242C120.902 10.4982 122.783 11.1822 127.913 15.7991C136.805 23.4942 137.831 26.2301 135.779 34.7802C134.24 40.5942 134.411 43.6721 136.463 49.4862C140.225 59.9172 141.593 72.0581 140.225 83.0021L139.028 92.4071L130.649 86.0801C122.783 80.0951 122.27 79.2401 122.27 71.7161C122.099 62.8241 120.902 58.3782 118.337 58.3782C117.482 58.3782 113.207 61.1141 109.103 64.5341C101.579 70.6901 101.408 70.6901 92.5161 68.9801C87.7281 67.9541 82.94 67.7831 82.085 68.6381C81.401 69.3221 81.914 74.1101 83.453 79.0691L86.018 88.3031L80.888 97.3661C78.152 102.325 76.271 107.113 76.784 107.968C77.468 108.994 82.256 109.678 87.557 109.678C96.791 109.678 97.4751 110.02 103.289 116.86C106.88 120.964 110.3 123.529 111.497 122.674C112.523 121.99 114.746 117.373 116.285 112.414C118.85 104.035 119.876 103.009 128.255 98.9051C133.385 96.3401 137.489 94.8011 137.489 95.1431C137.489 95.6561 135.437 99.9311 133.043 104.719C127.058 116.86 115.43 127.804 101.921 134.131C91.4901 139.09 88.925 139.603 74.219 139.603C60.197 139.603 56.606 138.919 48.056 134.986C36.941 129.685 25.484 121.306 22.919 116.347C21.209 113.44 21.38 113.269 25.484 115.15C32.153 118.057 33.692 115.321 30.785 105.403C28.391 97.8791 28.391 96.6821 31.64 90.5261C33.521 86.9351 34.547 83.1731 34.034 82.4891C33.521 81.6341 30.101 80.4371 26.51 79.7531C21.209 78.8981 18.302 77.0171 13.856 71.5451C8.72605 65.0471 8.21305 63.6791 9.58105 57.8652C11.804 47.2632 19.328 34.4381 28.391 25.7172C38.48 16.1412 41.216 15.1152 37.454 22.4682C33.692 29.6502 35.402 31.3602 44.465 29.9921C50.108 29.1372 53.015 29.6502 56.264 31.7021C61.565 35.1222 63.104 34.4381 65.498 27.0852C66.695 23.4942 69.602 20.4162 73.364 18.3642C80.546 14.4312 81.059 11.3531 74.732 9.13016C70.115 7.42015 70.286 7.42015 76.955 7.24916C80.717 7.07816 87.899 8.27515 92.858 9.81415ZM140.909 8.10416C140.909 8.61716 140.054 10.4982 139.028 12.3792C137.489 15.2861 136.805 15.4572 134.582 13.7471C132.359 11.6952 132.359 11.3531 135.095 9.30115C138.344 6.90715 140.909 6.39415 140.909 8.10416ZM62.933 11.3531C66.011 13.5762 66.011 14.0892 63.617 16.8251C62.249 18.5352 60.539 21.4422 59.855 23.1522C59 25.7172 58.316 26.0592 56.777 24.5201C55.58 23.3232 52.673 22.4682 50.279 22.4682C46.175 22.4682 45.833 21.9552 46.517 17.3382C47.03 13.9182 48.569 11.8661 51.818 10.6692C57.974 8.44615 59.171 8.44615 62.933 11.3531ZM121.415 86.7641L127.571 91.8941L120.56 95.1431C114.917 97.5371 113.207 99.5891 111.497 104.89C109.274 112.585 108.077 112.927 103.631 107.113C101.066 103.864 98.6721 102.838 93.2001 102.838C89.2671 102.838 86.189 102.496 86.189 102.154C86.189 101.641 87.7281 98.5631 89.7801 95.3141C92.858 90.1841 93.029 88.3031 91.4901 83.8571C88.583 75.6491 88.925 75.1361 96.9621 76.3331C102.947 77.1881 104.999 76.6751 109.274 73.0841L114.404 68.9801L114.917 75.1361C115.259 79.9241 116.798 82.8311 121.415 86.7641ZM21.38 85.7381H26.51L23.774 91.0391C21.551 95.1431 21.38 97.3661 22.748 101.299C24.629 106.6 24.287 106.771 18.302 105.232C14.54 104.206 11.633 98.9051 9.23905 88.3031C7.18705 78.8981 8.89705 75.4781 13.001 81.2921C15.3951 84.3701 17.96 85.7381 21.38 85.7381Z" fill="#3B3C40"/>
</svg>
