<svg width="155" height="151" viewBox="0 0 155 151" fill="none" xmlns="http://www.w3.org/2000/svg">
<g clip-path="url(#clip0_427_157)">
<path d="M69.2811 3.39712C64.2042 6.03448 61.835 11.8037 63.5273 17.7378C64.3734 21.1993 63.6965 21.8587 57.2657 23.8367C24.2657 33.3971 4.12728 68.3422 12.758 101.309C21.2196 133.452 54.2196 154.881 86.8811 149.276C139.681 140.21 161.173 80.54 125.635 41.6389C118.697 34.0565 98.0504 22.1883 91.6196 22.1883C89.2504 22.1883 88.7427 20.8697 88.9119 15.4301C89.0811 9.99053 88.0657 7.84766 84.3427 4.7158C78.9273 0.100426 75.7119 -0.064415 69.2811 3.39712ZM81.1273 6.69382C84.0042 8.67185 84.8504 10.6499 84.5119 14.4411C84.0042 19.3861 83.6657 19.7158 76.0504 20.2103C69.4504 20.7048 68.0965 20.2103 67.0811 17.4081C65.5581 12.4631 67.5888 7.35317 71.8196 5.70481C76.8965 3.7268 76.8965 3.7268 81.1273 6.69382ZM94.6657 29.1114C98.5581 30.1004 101.773 31.5839 101.773 32.2433C101.773 34.3861 98.2196 33.8916 93.3119 31.2543C89.4196 29.1114 88.7427 29.2762 85.3581 33.3971L81.4657 37.8477L78.2504 33.7268L74.8657 29.6059L71.3119 34.0565C67.4196 39.0015 62.8504 38.6718 62.8504 33.3971C62.8504 30.9246 62.1734 30.4301 59.9734 31.2543C58.2811 31.9136 55.0657 32.7378 52.6965 33.2323L48.4657 33.8916L53.035 31.4191C62.5119 25.9795 78.5888 25.1554 94.6657 29.1114ZM103.635 35.7048C107.697 33.2323 112.773 36.1993 122.758 46.9136C133.42 58.4521 136.297 66.6938 136.466 85.6499C136.466 101.309 136.127 102.628 130.712 112.518C119.543 132.463 103.127 142.683 79.7734 143.837C61.1581 144.661 49.8196 140.87 36.4504 129.002C10.0504 105.43 9.2042 67.8477 34.758 43.4521C41.8657 36.529 42.8811 36.1993 50.835 36.3642C56.0811 36.529 60.4811 37.6828 62.0042 39.3312C65.7273 42.7927 68.435 42.6279 72.1581 38.6718C74.6965 35.8696 75.3734 35.8696 77.5734 37.8477C80.7888 41.1444 83.6657 40.9795 87.2196 37.1883C89.758 34.551 90.9427 34.3861 95.1734 35.8696C98.8965 37.3532 100.927 37.3532 103.635 35.7048Z" fill="#3B3C40"/>
<path d="M71.989 12.4631C71.4813 13.4521 71.989 15.2653 73.1736 16.584C76.2198 19.3861 80.6198 16.9136 79.2659 13.2872C78.0813 10.3202 73.6813 9.82571 71.989 12.4631Z" fill="#3B3C40"/>
<path d="M46.4347 41.4741C43.0501 42.7927 43.8962 48.562 47.7885 51.6938C50.6654 53.8367 51.3424 56.3092 51.3424 63.0675C51.3424 68.0125 52.3578 72.2982 53.7116 73.2872C55.9116 75.1004 55.2347 79.8806 52.6962 79.8806C52.0193 79.8806 50.4962 77.573 49.3116 74.9356C46.9424 69.3312 44.0654 68.1774 45.4193 73.2872C46.7731 77.9026 44.7424 77.4081 39.6654 71.6389C34.0808 65.0455 31.2039 65.2103 35.9424 71.9686C38.6501 75.4301 39.1578 77.4081 37.8039 77.9026C33.9116 79.0565 35.7731 81.529 40.0039 80.54C42.3731 80.0455 45.5885 80.0455 47.1116 80.7048C49.9885 81.6938 49.9885 81.8587 47.2808 83.3422C43.0501 85.6499 43.3885 88.7817 47.4501 86.4741C52.0193 84.1664 52.6962 84.3312 54.2193 88.4521C55.0654 90.7598 54.727 93.7268 53.0347 96.6938C51.6808 99.3312 51.0039 104.111 51.3424 107.243C52.0193 112.518 51.6808 112.848 46.7731 112.848C39.6654 112.848 29.0039 115.98 29.0039 118.122C29.0039 119.111 30.527 119.441 32.8962 118.782C43.8962 115.815 50.6654 115.815 58.2808 119.111C63.1885 121.254 66.2347 123.562 66.2347 125.21C66.2347 126.694 66.7424 127.683 67.5885 127.353C78.0808 122.078 82.9885 120.76 91.7885 121.419C101.265 122.078 101.435 122.078 101.265 117.958C100.927 113.672 100.927 113.672 113.281 114.002C119.881 114.166 125.465 113.672 125.465 113.013C125.465 112.188 120.219 111.034 113.619 110.375C101.942 109.221 101.773 109.221 101.773 104.276C101.773 98.3422 98.0501 91.0894 92.8039 86.9686C84.3424 80.3752 87.5578 73.4521 97.8808 75.9246C102.112 77.0785 102.45 76.9136 100.25 74.4411C98.2193 71.9686 98.5578 71.6389 104.312 71.6389C109.389 71.6389 110.235 71.1444 108.712 69.496C107.696 68.1774 107.527 66.529 108.204 65.8697C109.219 64.551 107.696 65.0455 100.927 67.6828C99.0654 68.507 98.727 68.0125 99.4039 66.0345C99.9116 64.551 99.7424 63.3971 98.727 63.3971C97.8808 63.3971 96.527 65.2103 96.0193 67.518C94.8347 71.9686 91.6193 73.1224 91.6193 69.0015C91.6193 67.6828 90.9424 67.0235 89.927 67.518C89.0808 68.0125 88.2347 69.9905 88.2347 71.8037C88.2347 73.7817 87.3885 74.9356 86.2039 74.6059C85.0193 74.1114 83.327 69.3312 82.6501 63.7268C80.7885 51.1993 76.5578 47.7378 65.2193 49.3861C60.4808 50.0455 57.7731 49.7158 57.6039 48.7268C57.0962 45.2653 56.927 44.4411 55.5731 42.2982C54.2193 40.3202 50.1578 39.8257 46.4347 41.4741ZM53.7116 46.0894C53.2039 49.8806 51.3424 50.8697 48.4654 48.562C45.4193 46.0894 46.6039 43.6169 51.0039 43.6169C52.6962 43.6169 53.8808 44.6059 53.7116 46.0894ZM68.4347 54.3312C67.5885 56.4741 56.4193 61.5839 55.2347 60.4301C54.727 59.9356 54.3885 57.9576 54.3885 56.1444C54.3885 53.1774 55.4039 52.6828 61.8347 52.6828C66.0654 52.6828 68.9424 53.3422 68.4347 54.3312ZM78.2501 55.9796C78.2501 56.8037 75.8808 58.2872 72.8347 59.1114C69.7885 60.1004 64.8808 63.0675 61.8347 66.0345C57.4347 70.485 55.9116 70.9795 54.5578 69.3312C53.0347 67.518 54.5578 66.1993 61.4962 62.573C66.4039 60.1004 71.1424 56.9686 71.8193 55.6499C73.3424 53.1774 78.2501 53.3422 78.2501 55.9796ZM75.8808 64.2213C75.8808 65.54 74.8654 66.6938 73.5116 66.6938C72.327 66.6938 71.3116 67.518 71.3116 68.3422C71.3116 69.3312 73.1731 69.6609 75.8808 69.0015C80.2808 67.8477 80.4501 67.8477 77.5731 70.6499C75.3731 72.7927 73.3424 73.2872 69.1116 72.4631C64.7116 71.4741 64.0347 71.6389 65.727 73.4521C66.9116 74.6059 70.127 75.4301 73.1731 75.4301C78.4193 75.4301 78.4193 75.4301 74.3578 77.573C69.1116 80.54 66.0654 80.3752 61.4962 77.2433C57.9424 74.7708 57.9424 74.6059 60.6501 70.8147C62.5116 68.507 64.8808 67.1883 66.4039 67.6828C68.2654 68.1774 69.4501 67.1883 70.127 65.0455C71.1424 61.2543 75.8808 60.5949 75.8808 64.2213ZM83.8347 79.2213C85.6962 84.1664 84.8501 88.1224 81.9731 88.1224C79.7731 88.1224 79.4347 88.4521 81.127 89.4411C82.8193 90.5949 82.4808 91.4191 80.2808 93.3971C75.5424 97.3532 71.8193 98.0125 66.2347 96.1993C60.1424 94.0565 57.7731 90.2653 57.7731 83.0125C57.7731 78.562 58.1116 78.0675 60.3116 79.8806C62.0039 81.1993 65.727 81.6938 70.4654 81.1993C76.8962 80.3752 78.0808 80.7048 79.0962 83.507C79.6039 85.3202 80.4501 86.3092 80.9578 85.9795C81.2962 85.485 80.9578 83.6719 79.9424 81.8587C78.2501 78.7268 78.927 76.5839 81.6347 76.5839C82.3116 76.5839 83.327 77.7378 83.8347 79.2213ZM93.1424 92.0784C100.419 99.6609 99.4039 119.441 91.9578 116.969C90.2654 116.474 84.8501 117.298 79.7731 118.617C70.9731 120.76 70.127 120.76 63.3578 117.298C55.7424 113.507 53.5424 109.056 55.2347 101.144C56.5885 95.54 55.7424 95.7048 63.6962 99.0015C67.4193 100.485 71.9885 101.144 74.527 100.485C79.7731 99.1664 86.5424 93.3971 86.5424 90.2653C86.5424 86.9686 88.9116 87.6279 93.1424 92.0784Z" fill="#3B3C40"/>
<path d="M86.542 97.3532C86.542 98.6719 87.3881 99.3312 88.2343 98.8367C89.2497 98.1773 89.5881 97.0235 89.0805 96.1993C87.5574 93.8916 86.542 94.3861 86.542 97.3532Z" fill="#3B3C40"/>
<path d="M82.6502 42.9576C80.281 45.4301 81.6349 48.562 85.0195 48.562C87.3887 48.562 88.2349 47.7378 87.8964 45.7598C87.3887 42.7927 84.5118 41.3092 82.6502 42.9576Z" fill="#FF6D6D"/>
<path d="M112.773 51.3642C121.573 59.9356 127.157 72.4631 127.834 84.8257C128.511 98.0125 130.542 99.6609 130.542 86.8037C130.542 80.7048 129.188 73.1224 127.157 67.8477C123.434 57.9576 113.111 45.2653 109.05 45.2653C107.188 45.2653 108.373 47.4081 112.773 51.3642Z" fill="#3B3C40"/>
<path d="M100.081 55.1554C100.081 55.9796 100.927 56.8037 101.773 56.8037C102.789 56.8037 103.466 55.9796 103.466 55.1554C103.466 54.1664 102.789 53.507 101.773 53.507C100.927 53.507 100.081 54.1664 100.081 55.1554Z" fill="#3B3C40"/>
<path d="M86.542 57.6279C86.542 58.9466 87.7266 60.1004 89.0805 60.1004C90.4343 60.1004 91.6189 58.9466 91.6189 57.6279C91.6189 56.3092 90.4343 55.1554 89.0805 55.1554C87.7266 55.1554 86.542 56.3092 86.542 57.6279Z" fill="#3B3C40"/>
<path d="M117.004 75.7598C117.004 77.0785 117.85 78.2323 118.696 78.2323C119.712 78.2323 120.389 77.0785 120.389 75.7598C120.389 74.4411 119.712 73.2872 118.696 73.2872C117.85 73.2872 117.004 74.4411 117.004 75.7598Z" fill="#FF6D6D"/>
<path d="M105.158 82.3532C105.158 84.0015 106.343 84.8257 108.204 84.496C111.758 83.8367 111.42 80.8696 107.866 80.2103C106.174 79.8806 105.158 80.7048 105.158 82.3532Z" fill="#FF6D6D"/>
<path d="M26.4659 83.0125C25.4505 84.8257 27.989 86.8037 29.6813 85.3202C31.2044 83.8367 30.8659 81.529 29.1736 81.529C28.1582 81.529 27.1428 82.1883 26.4659 83.0125Z" fill="#FF6D6D"/>
<path d="M38.3116 94.551C37.2962 96.3642 39.8347 98.3422 41.527 96.8587C43.0501 95.3752 42.7116 93.0675 41.0193 93.0675C40.0039 93.0675 38.9885 93.7268 38.3116 94.551Z" fill="#3B3C40"/>
<path d="M123.773 101.309C123.773 102.133 124.62 102.958 125.466 102.958C126.481 102.958 127.158 102.133 127.158 101.309C127.158 100.32 126.481 99.6609 125.466 99.6609C124.62 99.6609 123.773 100.32 123.773 101.309Z" fill="#3B3C40"/>
<path d="M32.3885 8.01252C32.3885 10.6499 32.0501 10.8147 29.5116 8.83669C27.1424 6.85867 26.8039 6.85867 27.6501 9.00153C28.1578 10.3202 27.3116 12.2982 25.7885 13.4521C23.4193 15.2653 23.4193 15.4301 25.9578 15.5949C27.9885 15.5949 28.4962 16.4191 27.8193 18.3971C26.9732 20.3752 27.4809 20.8697 29.5116 20.0455C31.2039 19.3861 32.3885 20.0455 32.8962 21.8587C33.5732 24.3312 33.7424 24.3312 33.9116 21.6938C34.0809 19.3861 34.927 18.8916 37.8039 19.8807C41.1885 20.8697 41.3578 20.7048 39.327 18.2323C37.2962 15.9246 37.4655 15.5949 39.8347 15.5949C41.3578 15.5949 42.5424 14.7708 42.5424 13.9466C42.5424 12.9576 41.6962 12.2982 40.6808 12.2982C39.6655 12.2982 39.327 11.1444 39.8347 9.66087C40.6808 7.68285 40.1732 7.18834 37.9732 8.01252C36.4501 8.67186 34.5885 8.17735 33.7424 7.02351C32.8962 5.53999 32.3885 5.70483 32.3885 8.01252ZM35.4347 14.1114C35.0962 15.1004 34.0809 15.7598 33.2347 15.7598C32.3885 15.7598 31.3732 15.1004 31.0347 14.1114C30.6962 13.1224 31.7116 12.2982 33.2347 12.2982C34.7578 12.2982 35.7732 13.1224 35.4347 14.1114Z" fill="#FF6D6D"/>
<path d="M129.188 12.2982C129.188 14.6059 129.527 15.4301 130.035 14.2763C130.373 13.2873 130.373 11.3092 130.035 10.1554C129.527 9.16638 129.188 9.99055 129.188 12.2982Z" fill="#FF6D6D"/>
<path d="M121.743 18.3971C122.758 18.7268 124.789 18.7268 125.973 18.3971C126.989 17.9026 126.143 17.573 123.773 17.573C121.404 17.573 120.558 17.9026 121.743 18.3971Z" fill="#FF6D6D"/>
<path d="M133.588 18.3971C134.604 18.7268 136.634 18.7268 137.819 18.3971C138.834 17.9026 137.988 17.573 135.619 17.573C133.25 17.573 132.404 17.9026 133.588 18.3971Z" fill="#FF6D6D"/>
<path d="M129.188 23.8367C129.188 26.1444 129.527 26.9686 130.035 25.8147C130.373 24.8257 130.373 22.8477 130.035 21.6938C129.527 20.7048 129.188 21.529 129.188 23.8367Z" fill="#FF6D6D"/>
<path d="M139.004 31.0894C139.004 32.4081 139.85 34.0565 140.696 34.551C141.712 35.0455 142.389 34.0565 142.389 32.2433C142.389 30.2652 141.712 28.7817 140.696 28.7817C139.85 28.7817 139.004 29.7707 139.004 31.0894Z" fill="#FF6D6D"/>
<path d="M13.7734 32.9026C13.7734 34.2213 14.6196 35.3752 15.4657 35.3752C16.4811 35.3752 17.1581 34.2213 17.1581 32.9026C17.1581 31.5839 16.4811 30.4301 15.4657 30.4301C14.6196 30.4301 13.7734 31.5839 13.7734 32.9026Z" fill="#FF6D6D"/>
<path d="M133.081 37.0235C132.573 37.8477 133.588 38.6718 135.619 38.6718C137.65 38.6718 138.665 37.8477 138.157 37.0235C137.65 36.0345 136.465 35.3751 135.619 35.3751C134.773 35.3751 133.588 36.0345 133.081 37.0235Z" fill="#FF6D6D"/>
<path d="M144.081 37.0235C144.081 37.8477 145.604 38.6718 147.635 38.6718C149.496 38.6718 150.512 37.8477 150.004 37.0235C149.496 36.0345 147.804 35.3751 146.45 35.3751C145.096 35.3751 144.081 36.0345 144.081 37.0235Z" fill="#FF6D6D"/>
<path d="M7.00391 38.6719C7.00391 39.496 8.18852 40.3202 9.54237 40.3202C10.8962 40.3202 12.0808 39.496 12.0808 38.6719C12.0808 37.6828 10.8962 37.0235 9.54237 37.0235C8.18852 37.0235 7.00391 37.6828 7.00391 38.6719Z" fill="#FF6D6D"/>
<path d="M18.8496 38.6719C18.8496 39.496 20.0342 40.3202 21.3881 40.3202C22.7419 40.3202 23.9265 39.496 23.9265 38.6719C23.9265 37.6828 22.7419 37.0235 21.3881 37.0235C20.0342 37.0235 18.8496 37.6828 18.8496 38.6719Z" fill="#FF6D6D"/>
<path d="M139.004 42.6279C139.004 43.9466 139.85 45.5949 140.696 46.0894C141.712 46.584 142.389 45.5949 142.389 43.7818C142.389 41.8037 141.712 40.3202 140.696 40.3202C139.85 40.3202 139.004 41.3092 139.004 42.6279Z" fill="#FF6D6D"/>
<path d="M13.7734 44.4411C13.7734 45.7598 14.6196 46.9136 15.4657 46.9136C16.4811 46.9136 17.1581 45.7598 17.1581 44.4411C17.1581 43.1224 16.4811 41.9685 15.4657 41.9685C14.6196 41.9685 13.7734 43.1224 13.7734 44.4411Z" fill="#FF6D6D"/>
</g>
<defs>
<clipPath id="clip0_427_157">
<rect width="154" height="150" fill="white" transform="translate(0.234375 0.759766)"/>
</clipPath>
</defs>
</svg>
