<svg width="73" height="73" viewBox="0 0 73 73" fill="none" xmlns="http://www.w3.org/2000/svg">
<mask id="mask0_30_228" style="mask-type:alpha" maskUnits="userSpaceOnUse" x="0" y="0" width="73" height="73">
<rect x="0.5" y="0.922119" width="72" height="72" fill="#D9D9D9"/>
</mask>
<g mask="url(#mask0_30_228)">
<path d="M66.5 18.9221V54.9221C66.5 56.5721 65.913 57.9851 64.739 59.1611C63.563 60.3351 62.15 60.9221 60.5 60.9221H12.5C10.85 60.9221 9.438 60.3351 8.264 59.1611C7.088 57.9851 6.5 56.5721 6.5 54.9221V18.9221C6.5 17.2721 7.088 15.8601 8.264 14.6861C9.438 13.5101 10.85 12.9221 12.5 12.9221H60.5C62.15 12.9221 63.563 13.5101 64.739 14.6861C65.913 15.8601 66.5 17.2721 66.5 18.9221ZM12.5 24.9221H60.5V18.9221H12.5V24.9221ZM12.5 36.9221V54.9221H60.5V36.9221H12.5Z" fill="#3B3C40"/>
</g>
</svg>
