<svg width="13" height="13" viewBox="0 0 13 13" fill="none" xmlns="http://www.w3.org/2000/svg">
<path d="M3.79523 0.435303C1.75901 0.435303 0.102051 2.00941 0.102051 3.94383V8.80178C0.102051 10.7362 1.75901 12.3103 3.79523 12.3103H8.90887C10.9451 12.3103 12.6021 10.7362 12.6021 8.80178V3.94383C12.6021 2.00941 10.9451 0.435303 8.90887 0.435303H3.79523ZM3.79523 0.975075H8.90887C10.638 0.975075 12.0339 2.30117 12.0339 3.94383V8.80178C12.0339 10.4444 10.638 11.7705 8.90887 11.7705H3.79523C2.06612 11.7705 0.670233 10.4444 0.670233 8.80178V3.94383C0.670233 2.30117 2.06612 0.975075 3.79523 0.975075ZM9.76114 2.59439C9.61045 2.59439 9.46593 2.65126 9.35938 2.75249C9.25282 2.85372 9.19296 2.99101 9.19296 3.13417C9.19296 3.27732 9.25282 3.41462 9.35938 3.51584C9.46593 3.61707 9.61045 3.67394 9.76114 3.67394C9.91183 3.67394 10.0564 3.61707 10.1629 3.51584C10.2695 3.41462 10.3293 3.27732 10.3293 3.13417C10.3293 2.99101 10.2695 2.85372 10.1629 2.75249C10.0564 2.65126 9.91183 2.59439 9.76114 2.59439ZM6.35205 3.40405C4.62953 3.40405 3.22705 4.7364 3.22705 6.3728C3.22705 8.0092 4.62953 9.34155 6.35205 9.34155C8.07458 9.34155 9.47705 8.0092 9.47705 6.3728C9.47705 4.7364 8.07458 3.40405 6.35205 3.40405ZM6.35205 3.94383C7.76751 3.94383 8.90887 5.02812 8.90887 6.3728C8.90887 7.71749 7.76751 8.80178 6.35205 8.80178C4.93659 8.80178 3.79523 7.71749 3.79523 6.3728C3.79523 5.02812 4.93659 3.94383 6.35205 3.94383Z" fill="white"/>
</svg>
