<svg width="79" height="28" viewBox="0 0 79 28" fill="none" xmlns="http://www.w3.org/2000/svg">
<path d="M2.70411 12.0516V11.5002H8.25671C11.3196 11.5002 13.5468 12.1741 14.9382 13.5217C16.3297 14.8607 17.0254 16.8034 17.0254 19.35C17.0254 22.693 15.5902 24.9726 12.7198 26.189C11.2584 26.8016 9.53001 27.1123 7.53474 27.121C3.80675 27.121 1.45707 26.1365 0.485689 24.1675C0.161896 23.5112 0 22.7542 0 21.8966C0 19.9976 0.87074 18.5974 2.61222 17.696C3.17229 17.4073 3.798 17.1885 4.48934 17.0397V14.2568C4.48934 13.4605 4.42371 12.9442 4.29244 12.7079C4.16117 12.4629 3.88989 12.2966 3.47858 12.2091L2.70411 12.0516ZM10.4358 18.0505C10.4358 18.6543 10.1163 18.9606 9.4775 18.9693C9.14496 18.9693 8.81679 18.7987 8.493 18.4574C8.1692 18.1161 7.91104 17.8886 7.71852 17.7748C7.46474 17.6173 6.96592 17.5735 6.22207 17.6435V26.2809C6.38834 26.2984 6.58087 26.3072 6.79965 26.3072H7.67914C9.60439 26.3072 11.2102 25.8653 12.4966 24.9814C14.2119 23.7912 15.0739 21.9316 15.0826 19.4025C15.0826 16.0158 13.8443 13.8368 11.3678 12.8654C10.4576 12.5154 9.42062 12.3403 8.25671 12.3403H6.22207V16.8166C6.34459 16.8078 6.50211 16.8034 6.69463 16.8034C8.3486 16.8034 9.41624 16.9347 9.89756 17.1972C10.2476 17.3898 10.427 17.6742 10.4358 18.0505ZM4.48934 17.9848C2.32781 18.6674 1.24266 19.9932 1.23391 21.9622C1.23391 23.6512 2.11778 24.8851 3.88551 25.664C4.33182 25.8565 4.81751 26.0096 5.34258 26.1234C5.07129 25.9746 4.78688 25.7296 4.48934 25.3883V17.9848Z" fill="#3B3C40"/>
<path d="M26.9098 26.3072C27.6186 26.3072 28.0431 25.7734 28.1831 24.7057H28.7082V27.121H18.2593V26.5697L19.0206 26.4122C19.4932 26.3159 19.782 26.1234 19.887 25.8346C19.992 25.5458 20.0445 25.0558 20.0445 24.3644V14.2568C20.0445 13.4605 19.9789 12.9442 19.8476 12.7079C19.7164 12.4629 19.4451 12.2966 19.0338 12.2091L18.2593 12.0516V11.5002H27.9468V13.9155H27.4217C27.273 12.8654 26.8485 12.3316 26.1485 12.3141H21.8035V18.9956H24.8358C25.1683 18.9956 25.3652 18.9431 25.4265 18.8381C25.4965 18.7331 25.5709 18.5143 25.6496 18.1817L25.7809 17.6042H26.3322V21.1746H25.7809C25.6409 20.457 25.5096 20.0501 25.3871 19.9538C25.2733 19.8576 25.0852 19.8095 24.8227 19.8095H21.8035V26.3072H26.9098Z" fill="#3B3C40"/>
<path d="M38.2644 11.3558C39.9709 11.3646 41.5199 11.7628 42.9113 12.5504C43.2351 12.7254 43.467 12.8742 43.607 12.9967L43.817 13.1936V16.1865H43.1738C43.1301 15.8189 42.9419 15.3464 42.6094 14.7688C41.638 13.0886 40.1722 12.2441 38.2119 12.2353C36.6017 12.2353 35.2409 12.8917 34.1295 14.2043C32.9569 15.587 32.3705 17.2235 32.3705 19.1137C32.3705 20.5052 32.6724 21.831 33.2763 23.0911C34.3877 25.4277 36.1729 26.6003 38.632 26.6091C40.7848 26.6091 42.1849 25.8302 42.8325 24.2725C43.0076 23.8437 43.1213 23.3755 43.1738 22.868H43.817V25.8346C42.1193 26.981 40.2291 27.5542 38.1463 27.5542C35.6522 27.5542 33.7138 26.6485 32.3311 24.837C31.1585 23.2968 30.5722 21.4984 30.5722 19.4419C30.5722 16.9303 31.3073 14.9569 32.7775 13.5217C34.2564 12.0778 36.0854 11.3558 38.2644 11.3558Z" fill="#3B3C40"/>
<path fill-rule="evenodd" clip-rule="evenodd" d="M47.5844 13.8499C46.3067 15.4339 45.6679 17.381 45.6679 19.6913C45.6679 21.9404 46.3286 23.8044 47.65 25.2833C48.9715 26.7535 50.7042 27.4886 52.8482 27.4886C55.1935 27.4886 56.9831 26.6704 58.2171 25.0339C59.4597 23.3974 60.0811 21.5334 60.0811 19.4419C60.0768 18.3096 59.9178 17.2786 59.6038 16.3488C59.222 17.0127 58.2565 17.0065 57.8216 16.9204C58.0065 17.7283 58.0989 18.6475 58.0989 19.6782C58.0989 21.6034 57.692 23.2268 56.8781 24.5482C56.0643 25.8609 54.7735 26.5172 53.0057 26.5172C51.5093 26.5085 50.2404 25.9134 49.199 24.732C48.1576 23.5418 47.6369 21.6909 47.6369 19.1794C47.6369 17.1666 48.0788 15.5301 48.9627 14.27C49.0254 14.1815 49.0894 14.0962 49.1549 14.014C48.6264 13.6865 48.3099 13.309 48.2177 13.1612C47.9967 13.3713 47.7856 13.6009 47.5844 13.8499Z" fill="#3B3C40"/>
<path fill-rule="evenodd" clip-rule="evenodd" d="M71.3438 11.5002H62.562L63.7804 12.8619C63.8288 12.8254 63.8777 12.7871 63.9272 12.7473C64.356 12.406 64.7017 12.2353 64.9642 12.2353C65.7168 12.2703 66.1806 12.861 66.3556 14.0074V24.4038C66.3556 25.1477 66.3075 25.6508 66.2112 25.9134C66.1237 26.1759 65.8481 26.3553 65.3843 26.4516L64.6229 26.6091V27.121H69.7292V26.5828L68.8366 26.3991C68.5565 26.3466 68.3684 26.2678 68.2721 26.1628C68.1759 26.049 68.1277 25.7077 68.1277 25.1389V12.3272H70.4249C71.1163 12.3272 71.7245 12.4716 72.2495 12.7604C73.2297 13.3117 73.7197 14.2612 73.7197 15.6089C73.7197 16.169 73.6235 16.6897 73.4309 17.171C72.9934 18.2211 72.2145 18.7724 71.0944 18.8249C70.9194 18.8074 70.7006 18.7987 70.438 18.7987C69.1691 18.7987 68.5347 19.1706 68.5347 19.9145C68.5347 20.142 68.6134 20.3827 68.771 20.6364C68.9372 20.8902 69.1604 21.0171 69.4404 21.0171C69.7292 21.0084 69.9392 20.9427 70.0705 20.8202C70.1493 20.7414 70.2499 20.5445 70.3724 20.2295C70.5037 19.9145 70.6656 19.7613 70.8581 19.7701C71.0594 19.7701 71.2694 19.9495 71.4882 20.3083C71.707 20.6671 72.2145 21.6428 73.0109 23.2355C73.8072 24.8195 74.5948 25.9484 75.3737 26.6222C76.1613 27.2961 77.2639 27.5674 78.6816 27.4361V26.7404C78.1478 26.5828 77.6096 26.1322 77.067 25.3883C76.5332 24.6445 75.7237 23.3318 74.6386 21.4503C74.0698 20.4789 73.4134 19.7701 72.6696 19.3238C73.2209 19.1137 73.7285 18.8293 74.1923 18.4705C75.2424 17.6392 75.7675 16.6284 75.7675 15.4382C75.7588 13.8805 75.0674 12.756 73.6935 12.0647C72.9321 11.6884 72.1489 11.5002 71.3438 11.5002Z" fill="#3B3C40"/>
<path d="M55.634 3.01619C54.3789 3.77354 52.5257 5.88102 51.3564 7.88636C50.8092 8.82087 50.0011 9.99427 49.5673 10.4861C48.5781 11.5669 47.9464 13.0282 48.1774 13.7009C48.5166 14.624 51.3354 15.9398 55.6151 17.1298C59.2748 18.1567 60.1813 17.6241 60.0028 14.5444C59.9466 13.6402 60.0001 12.2503 60.1054 11.4621C60.4361 9.26921 60.1807 7.55966 59.5362 7.61514C59.2569 7.63919 59.252 7.8344 59.399 8.536C59.5079 9.04609 59.5236 10.2352 59.4331 11.1953C59.1713 13.6853 59.2246 13.5508 58.416 13.2092C57.2722 12.7449 57.1466 13.2968 58.237 13.8955C58.7375 14.1771 59.2219 14.525 59.3012 14.6913C59.5371 15.1689 59.3269 16.2475 58.9109 16.6946C58.5341 17.0949 58.4463 17.0808 56.3909 16.5868C53.8032 15.9438 50.7647 14.8418 49.7117 14.1749C48.8416 13.6221 48.7076 13.0709 49.2241 12.0308C49.7602 10.9673 50.2077 10.8855 52.2583 11.5748C54.2641 12.2463 54.6797 12.2971 54.6427 11.8674C54.6298 11.717 53.796 11.3342 52.794 11.0092C51.7724 10.7076 50.9031 10.4144 50.8583 10.3967C50.6734 10.2611 52.6864 6.99269 53.7467 5.73264C57.8861 0.766141 62.0035 2.83587 62.2307 10.0021C62.2569 11.0604 62.2308 12.015 62.1504 12.0869C62.0934 12.1784 61.7778 12.0324 61.453 11.779C60.7566 11.2329 60.4707 11.4306 60.9417 12.126C61.1684 12.4961 61.2158 12.795 61.0827 13.261C60.6647 14.9419 62.5355 16.0579 63.7948 14.8456C64.4342 14.2279 64.3233 12.9388 63.5643 12.4197C63.0584 12.0737 63.0258 11.9466 62.8616 9.5366C62.6586 6.67541 62.1632 4.94324 61.1517 3.7533C59.9192 2.25774 57.4881 1.92589 55.634 3.01619ZM63.1827 13.0153C63.5634 13.4154 63.4796 14.2018 63.0543 14.5414C62.2393 15.131 61.2542 13.744 62.0207 13.0937C62.4834 12.6859 62.829 12.6778 63.1827 13.0153Z" fill="#3B3C40"/>
<path d="M55.6791 12.383C55.5042 12.6145 55.7664 12.8949 56.1317 12.8635C56.3036 12.8487 56.4195 12.6872 56.4047 12.5153C56.377 12.193 55.9147 12.103 55.6791 12.383Z" fill="black"/>
</svg>
