<svg width="73" height="73" viewBox="0 0 73 73" fill="none" xmlns="http://www.w3.org/2000/svg">
<mask id="mask0_30_234" style="mask-type:alpha" maskUnits="userSpaceOnUse" x="0" y="0" width="73" height="73">
<rect x="0.5" y="0.0822754" width="72" height="72" fill="#D9D9D9"/>
</mask>
<g mask="url(#mask0_30_234)">
<path d="M36.5 66.0823C29.55 64.3323 23.813 60.3443 19.289 54.1183C14.763 47.8943 12.5 40.9823 12.5 33.3823V15.0823L36.5 6.08228L60.5 15.0823V33.3823C60.5 40.9823 58.238 47.8943 53.714 54.1183C49.188 60.3443 43.45 64.3323 36.5 66.0823ZM36.5 59.7823C41.35 58.2823 45.4 55.3203 48.65 50.8963C51.9 46.4703 53.8 41.5323 54.35 36.0823H36.5V12.4573L18.5 19.2073V34.7323C18.5 35.0823 18.55 35.5323 18.65 36.0823H36.5V59.7823Z" fill="#3B3C40"/>
</g>
</svg>
