<svg width="73" height="73" viewBox="0 0 73 73" fill="none" xmlns="http://www.w3.org/2000/svg">
<mask id="mask0_30_210" style="mask-type:alpha" maskUnits="userSpaceOnUse" x="0" y="0" width="73" height="73">
<rect width="72" height="72" transform="matrix(-1 0 0 1 72.5 0.715698)" fill="#D9D9D9"/>
</mask>
<g mask="url(#mask0_30_210)">
<path d="M54.5 60.7157C57 60.7157 59.125 59.8407 60.875 58.0907C62.625 56.3407 63.5 54.2157 63.5 51.7157H69.5V18.7157C69.5 17.0657 68.912 15.6537 67.736 14.4797C66.562 13.3037 65.15 12.7157 63.5 12.7157H21.5V24.7157H12.5L3.5 36.7157V51.7157H9.5C9.5 54.2157 10.375 56.3407 12.125 58.0907C13.875 59.8407 16 60.7157 18.5 60.7157C21 60.7157 23.125 59.8407 24.875 58.0907C26.625 56.3407 27.5 54.2157 27.5 51.7157H45.5C45.5 54.2157 46.375 56.3407 48.125 58.0907C49.875 59.8407 52 60.7157 54.5 60.7157ZM54.5 54.7157C53.65 54.7157 52.937 54.4277 52.361 53.8517C51.787 53.2777 51.5 52.5657 51.5 51.7157C51.5 50.8657 51.787 50.1537 52.361 49.5797C52.937 49.0037 53.65 48.7157 54.5 48.7157C55.35 48.7157 56.063 49.0037 56.639 49.5797C57.213 50.1537 57.5 50.8657 57.5 51.7157C57.5 52.5657 57.213 53.2777 56.639 53.8517C56.063 54.4277 55.35 54.7157 54.5 54.7157ZM63.5 45.7157H61.1C60.25 44.8157 59.275 44.0907 58.175 43.5407C57.075 42.9907 55.85 42.7157 54.5 42.7157C53.15 42.7157 51.925 42.9907 50.825 43.5407C49.725 44.0907 48.75 44.8157 47.9 45.7157H27.5V18.7157H63.5V45.7157ZM18.5 54.7157C17.65 54.7157 16.938 54.4277 16.364 53.8517C15.788 53.2777 15.5 52.5657 15.5 51.7157C15.5 50.8657 15.788 50.1537 16.364 49.5797C16.938 49.0037 17.65 48.7157 18.5 48.7157C19.35 48.7157 20.062 49.0037 20.636 49.5797C21.212 50.1537 21.5 50.8657 21.5 51.7157C21.5 52.5657 21.212 53.2777 20.636 53.8517C20.062 54.4277 19.35 54.7157 18.5 54.7157ZM21.5 39.7157H8.75L15.5 30.7157H21.5V39.7157Z" fill="#3B3C40"/>
</g>
</svg>
