<svg width="19" height="19" viewBox="0 0 19 19" fill="none" xmlns="http://www.w3.org/2000/svg">
<path d="M8.88164 1.93931C8.79727 2.02368 8.71289 2.50181 8.71289 2.97993V3.82368L7.72852 2.86743C7.19414 2.33306 6.74414 2.05181 6.74414 2.19243C6.74414 2.36118 7.19414 2.89556 7.72852 3.42993C8.68477 4.35806 8.71289 4.41431 8.71289 6.72056V9.02681L6.96914 8.01431C4.94414 6.83306 4.85977 6.74868 4.63477 5.39868C4.55039 4.86431 4.35352 4.21743 4.21289 3.99243C3.79102 3.2893 3.59414 3.87993 3.90352 5.00493C4.24102 6.27056 4.18477 6.38306 3.36914 5.96118C2.35664 5.42681 2.10352 5.82056 3.05977 6.43931L3.98789 7.00181L2.69414 7.36743C1.99102 7.56431 1.40039 7.84556 1.40039 7.95806C1.40039 8.29556 1.54102 8.26743 3.31289 7.81743L4.77539 7.42368L6.60352 8.43618C7.58789 9.02681 8.40352 9.53306 8.40352 9.61743C8.40352 9.70181 7.58789 10.2081 6.60352 10.7987L4.77539 11.8112L3.31289 11.4174C1.54102 10.9674 1.40039 10.9393 1.40039 11.2768C1.40039 11.3893 1.99102 11.6706 2.69414 11.8674L3.98789 12.2331L3.05977 12.7956C2.10352 13.4143 2.35664 13.8081 3.36914 13.2737C4.18477 12.8518 4.26914 12.9924 3.93164 14.1456C3.59414 15.3268 3.59414 15.5237 3.90352 15.5237C4.01602 15.5237 4.35352 14.7924 4.60664 13.8924C5.02852 12.3456 5.11289 12.2612 6.88477 11.2487L8.71289 10.2081V12.5424C8.71289 14.8206 8.68477 14.8768 7.72852 15.8049C7.19414 16.3393 6.74414 16.8737 6.74414 17.0424C6.74414 17.1831 7.16602 16.9018 7.70039 16.3956L8.68477 15.4393L8.76914 16.3956C8.82539 16.9299 8.99414 17.3518 9.13477 17.3518C9.30352 17.3518 9.44414 16.9299 9.50039 16.3956L9.58477 15.4393L10.5691 16.3956C11.8348 17.6331 11.8066 17.0987 10.541 15.8049C9.52852 14.7643 9.52852 14.7643 9.61289 12.4862L9.69727 10.2081L11.2441 11.1643C12.0879 11.6987 12.8754 12.1768 13.016 12.2049C13.1285 12.2612 13.4098 12.9643 13.6348 13.8081C14.0285 15.3831 14.2254 15.7206 14.5066 15.4393C14.591 15.3549 14.5348 14.8206 14.3379 14.2581C13.9441 13.0487 14.0566 12.8237 14.9004 13.2737C15.9129 13.8081 16.166 13.4143 15.2098 12.7956L14.2816 12.2331L15.5754 11.8674C16.2785 11.6706 16.8691 11.3893 16.8691 11.2768C16.8691 10.9393 16.616 10.9674 15.041 11.4456L13.6629 11.8393L11.7504 10.7987C10.7098 10.2362 9.83789 9.70181 9.83789 9.61743C9.83789 9.53306 10.7098 8.99868 11.7504 8.43618L13.6629 7.39556L15.041 7.78931C16.616 8.26743 16.8691 8.29556 16.8691 7.95806C16.8691 7.84556 16.2785 7.56431 15.5754 7.36743L14.2816 7.00181L15.2098 6.43931C16.166 5.82056 15.9129 5.42681 14.9004 5.96118C14.0566 6.41118 13.9441 6.18618 14.3379 4.97681C14.5348 4.41431 14.591 3.87993 14.5066 3.79556C14.2254 3.51431 14.0285 3.8518 13.6348 5.42681C13.4098 6.27056 13.1285 6.97368 13.016 7.02993C12.8754 7.05806 12.0879 7.53618 11.2441 8.07056L9.69727 9.02681L9.61289 6.74868C9.52852 4.47056 9.52852 4.47056 10.541 3.42993C11.8066 2.10806 11.8348 1.62993 10.541 2.86743L9.55664 3.82368V2.95181C9.55664 2.07993 9.24727 1.6018 8.88164 1.93931Z" fill="#FF6D6D"/>
</svg>
